<svg id="Layer_1" data-name="Layer 1" xmlns="http://www.w3.org/2000/svg" xmlns:xlink="http://www.w3.org/1999/xlink" width="981.7" height="138.69" viewBox="0 0 981.7 138.69"><defs><style>.cls-1,.cls-2,.cls-3,.cls-4,.cls-5,.cls-6,.cls-7,.cls-8,.cls-9{fill:none;}.cls-2,.cls-4,.cls-6,.cls-7,.cls-9{stroke:#004fb6;}.cls-2,.cls-3,.cls-4,.cls-5,.cls-6,.cls-7,.cls-8,.cls-9{stroke-linecap:round;}.cls-2,.cls-3,.cls-4,.cls-9{stroke-linejoin:round;}.cls-2{stroke-width:1.74px;}.cls-3,.cls-5,.cls-8{stroke:#00b4ef;}.cls-3,.cls-4{stroke-width:2.36px;}.cls-5,.cls-6,.cls-7,.cls-8{stroke-miterlimit:10;}.cls-5,.cls-6{stroke-width:1.9px;}.cls-7,.cls-8{stroke-width:2.03px;}.cls-9{stroke-width:12px;}.cls-10{fill:#00ace9;}.cls-11{fill:#223d77;}.cls-12{fill:#01a4b6;}.cls-13{fill:#ffde00;}.cls-14{fill:#f89521;}.cls-15{fill:#b31e81;}.cls-16{clip-path:url(#clip-path);}.cls-17{fill:#61bc57;}.cls-18{clip-path:url(#clip-path-2);}.cls-19{fill:#792e8f;}</style><clipPath id="clip-path" transform="translate(-0.3 -3.28)"><rect class="cls-1" x="669" y="53.4" width="46.8" height="25.8"/></clipPath><clipPath id="clip-path-2" transform="translate(-0.3 -3.28)"><rect class="cls-1" x="604.8" y="53.4" width="46.9" height="25.8"/></clipPath><symbol id="M12_General_insurance" data-name="M12 General insurance" viewBox="0 0 22.45 25.04"><polyline class="cls-5" points="6.45 19.44 0.95 19.44 0.95 8.94 10.15 1.24 19.55 8.94 19.55 11.94"/><line class="cls-5" x1="4.15" y1="3.14" x2="4.15" y2="6.14"/><path class="cls-6" d="M20.25,18.34s-0.5-2.8-1.8-3.7h-6c-1.3.9-1.8,3.7-1.8,3.7"/><path class="cls-6" d="M15.15,18.84H9.85c-0.1,0-.1,0-0.1.1a7,7,0,0,0-.1,3.8h5.5"/><path class="cls-6" d="M14.85,18.84h6.2c0.1,0,.1,0,0.1.1a7,7,0,0,1,.1,3.8h-6.6"/><line class="cls-6" x1="10.55" y1="22.94" x2="10.55" y2="24.04"/><line class="cls-6" x1="20.25" y1="22.94" x2="20.25" y2="24.04"/><polygon class="cls-1" points="0.05 0.04 22.45 0.04 22.45 25.04 0.05 25.04 0.05 0.04"/></symbol><symbol id="M12_Health_insurance" data-name="M12 Health insurance" viewBox="0 0 26.2 25.09"><path class="cls-7" d="M1.1,14.49H7.6c0.1,0,.1,0,0.1-0.1l2.7-13.3h0l2.1,11.5"/><path class="cls-8" d="M13.3,16.29L14.7,24h0l4-16.6c0-.1,0-0.1.1,0l2.4,6.9c0,0.1.1,0.1,0.2,0.1h3.7"/><polygon class="cls-1" points="0 0.09 26.2 0.09 26.2 25.09 0 25.09 0 0.09"/></symbol><symbol id="M12_Asset_management" data-name="M12 Asset management" viewBox="0 0 34.96 25"><line class="cls-2" x1="12.28" y1="19.5" x2="19.08" y2="19.5"/><line class="cls-2" x1="12.28" y1="14.9" x2="17.48" y2="14.9"/><line class="cls-2" x1="13.78" y1="19.5" x2="13.78" y2="15"/><path class="cls-2" d="M19.08,11.4c0-1.1-1.2-2-2.6-2a2.5,2.5,0,0,0-2.6,2.5v0.6"/><polyline class="cls-3" points="5.38 1.2 33.78 1.2 33.78 19.8"/><polyline class="cls-4" points="1.18 21.1 1.18 5.2 29.58 5.2 29.58 23.8 3.78 23.8"/><polygon class="cls-1" points="0.08 0 34.88 0 34.88 25 0.08 25 0.08 0"/></symbol></defs><title>home_sprite_updatev5</title><path class="cls-9" d="M49.6,61.8C38,47.8,15.1,48,6.4,70.3c-0.1,22.2-.1,26.3-0.1,53.1" transform="translate(-0.3 -3.28)"/><path class="cls-9" d="M91,62.2c2.7-21.8,36.2-24.5,41,0,0.1,22.2,0,32.4,0,59.8" transform="translate(-0.3 -3.28)"/><path class="cls-9" d="M50.1,122.5c0-11.8-.2-35.8,0-36.6,4.8-19.5,33-19.5,38.5,0,0.1,22.2-.1,25.6,0,36.6" transform="translate(-0.3 -3.28)"/><circle class="cls-10" cx="111.4" cy="14.72" r="13.8"/><circle class="cls-10" cx="69.4" cy="41.02" r="13.8"/><circle class="cls-10" cx="31.4" cy="23.02" r="13.8"/><use width="22.45" height="25.04" transform="translate(150.84 0.11) scale(5.44)" xlink:href="#M12_General_insurance"/><use width="26.2" height="25.09" transform="translate(281.07 0) scale(5.53)" xlink:href="#M12_Health_insurance"/><use width="34.96" height="25" transform="translate(431.85 0.88) scale(4.43)" xlink:href="#M12_Asset_management"/><path class="cls-11" d="M660.4,11.2a12.41,12.41,0,0,0-8.8,3.6,11.58,11.58,0,0,0-3.3,6,12.81,12.81,0,0,1,3.3,7.7l1.5,10.4,5.7,14.4,1.6,4,1.6-4,5.7-14.4,1.5-10.4a12.81,12.81,0,0,1,3.3-7.7,12.33,12.33,0,0,0-3.3-6,12.58,12.58,0,0,0-8.8-3.6" transform="translate(-0.3 -3.28)"/><path class="cls-11" d="M660.4,75.3l-1.6,4-5.7,14.4-1.5,10.4a12.81,12.81,0,0,1-3.3,7.7,12.33,12.33,0,0,0,3.3,6,12.16,12.16,0,0,0,8.8,3.6,12.41,12.41,0,0,0,8.8-3.6,11.58,11.58,0,0,0,3.3-6,12.81,12.81,0,0,1-3.3-7.7l-1.5-10.4L662,79.3Z" transform="translate(-0.3 -3.28)"/><path class="cls-12" d="M681.7,16.9a11.7,11.7,0,0,0-3.2.4,12.94,12.94,0,0,0-5.9,3.5,12.31,12.31,0,0,1-1,8.4L667.7,39l-2.2,15.2-0.7,4.3,3.4-2.7,12.3-9.6,6.4-8.3a12.09,12.09,0,0,1,6.8-4.9,11.6,11.6,0,0,0,.1-6.9,12.6,12.6,0,0,0-12.1-9.2" transform="translate(-0.3 -3.28)"/><path class="cls-11" d="M672.6,20.8a12.62,12.62,0,0,0-3.4,7.8L667.7,39l3.9-9.8a12.18,12.18,0,0,0,1-8.4" transform="translate(-0.3 -3.28)"/><path class="cls-12" d="M655.8,74.1l-3.3,2.8-12.2,9.5-6.5,8.3a11.64,11.64,0,0,1-6.8,4.9,11.28,11.28,0,0,0-.1,6.8,12.49,12.49,0,0,0,12.1,9.2,11.7,11.7,0,0,0,3.2-.4,12.94,12.94,0,0,0,5.9-3.5,12.31,12.31,0,0,1,1-8.4l3.9-9.8,2.2-15.3Z" transform="translate(-0.3 -3.28)"/><path class="cls-11" d="M653.1,93.6l-3.9,9.9a13.43,13.43,0,0,0-1,8.4,12.81,12.81,0,0,0,3.3-7.7Z" transform="translate(-0.3 -3.28)"/><path class="cls-13" d="M639.1,16.9A12.6,12.6,0,0,0,627,26.1a11.23,11.23,0,0,0,.1,6.8,14.11,14.11,0,0,1,6.8,4.9l6.5,8.3,12.2,9.6,3.4,2.7-0.7-4.3-2.2-15.3L649.2,29c-1.2-2.7-1-8.7-1-8.3a12.28,12.28,0,0,0-5.9-3.6c-1.1,0-2.1-.2-3.2-0.2" transform="translate(-0.3 -3.28)"/><path class="cls-13" d="M648.2,20.8a12.59,12.59,0,0,0,1,8.5l3.9,9.7-1.4-10.1a13,13,0,0,0-3.5-8.1" transform="translate(-0.3 -3.28)"/><path class="cls-13" d="M664.9,74.1l0.7,4.3,2.2,15.3,3.9,9.8a13.43,13.43,0,0,1,1,8.4,12.13,12.13,0,0,0,5.9,3.5,11.7,11.7,0,0,0,3.2.4,12.6,12.6,0,0,0,12.1-9.2,11.23,11.23,0,0,0-.1-6.8,13.5,13.5,0,0,1-6.8-4.9l-6.6-8.4L668.3,77Z" transform="translate(-0.3 -3.28)"/><path class="cls-13" d="M667.7,93.7l1.5,10.4a12.81,12.81,0,0,0,3.3,7.7,12.31,12.31,0,0,0-1-8.4Z" transform="translate(-0.3 -3.28)"/><path class="cls-14" d="M611.4,48.1a12.94,12.94,0,0,0,3.5,5.9,14.28,14.28,0,0,1,2.9-.3,13,13,0,0,1,5.5,1.2l9.8,3.9L648.4,61l4.3,0.7L650,58.3l-9.7-12.2L632,39.6a11.43,11.43,0,0,1-4.9-6.7,10.82,10.82,0,0,0-3.6-.5" transform="translate(-0.3 -3.28)"/><path class="cls-14" d="M623.5,32.5a8.92,8.92,0,0,0-3.2.5,12.39,12.39,0,0,0-8.8,15.3" transform="translate(-0.3 -3.28)"/><path class="cls-14" d="M627.1,33a12,12,0,0,0,4.9,6.8l8.3,6.4L633.8,38a10.91,10.91,0,0,0-6.7-5" transform="translate(-0.3 -3.28)"/><path class="cls-14" d="M668.2,70.8l2.7,3.4,9.5,12.1,8.3,6.5a12.13,12.13,0,0,1,5,6.8,10.24,10.24,0,0,0,3.5.5,8.92,8.92,0,0,0,3.2-.5,12.39,12.39,0,0,0,8.8-15.3,12.94,12.94,0,0,0-3.5-5.9,14.28,14.28,0,0,1-2.9.3,13,13,0,0,1-5.5-1.2l-9.8-3.9-15.3-2.2Z" transform="translate(-0.3 -3.28)"/><path class="cls-14" d="M680.4,86.3l6.5,8.3a12.13,12.13,0,0,0,6.8,5,13.26,13.26,0,0,0-5-6.8Z" transform="translate(-0.3 -3.28)"/><path class="cls-15" d="M609,75.1a11.58,11.58,0,0,0,6,3.3,12.81,12.81,0,0,1,7.7-3.3l10.4-1.5,14.4-5.7,4-1.6-4-1.6L633,58.9l-10.4-1.5a12.81,12.81,0,0,1-7.7-3.3" transform="translate(-0.3 -3.28)"/><path class="cls-15" d="M614.9,54.1a12.33,12.33,0,0,0-6,3.3" transform="translate(-0.3 -3.28)"/><polyline class="cls-1" points="604.6 75.92 651.5 75.92 651.5 50.12 604.6 50.12"/><path class="cls-15" d="M617.8,53.8a14.28,14.28,0,0,0-2.9.3,12.81,12.81,0,0,0,7.7,3.3L633,58.9,623.2,55a14.6,14.6,0,0,0-5.4-1.2" transform="translate(-0.3 -3.28)"/><g class="cls-16"><path class="cls-15" d="M705.9,54.1a12.81,12.81,0,0,1-7.7,3.3l-10.4,1.5-14.4,5.7-4.1,1.7,4,1.6,14.4,5.7,10.4,1.5a12.81,12.81,0,0,1,7.7,3.3,12.33,12.33,0,0,0,6-3.3,12.49,12.49,0,0,0,0-17.7,13.85,13.85,0,0,0-5.9-3.3" transform="translate(-0.3 -3.28)"/></g><path class="cls-15" d="M687.8,73.7l9.8,3.9a11.63,11.63,0,0,0,5.5,1.2,14.28,14.28,0,0,0,2.9-.3,12.81,12.81,0,0,0-7.7-3.3Z" transform="translate(-0.3 -3.28)"/><path class="cls-17" d="M697.3,32.5a10.88,10.88,0,0,0-3.6.6,13.5,13.5,0,0,1-4.9,6.8l-8.3,6.5-9.6,12.1-2.7,3.4,4.3-.7L687.8,59l9.8-3.9a11.63,11.63,0,0,1,5.5-1.2,14.28,14.28,0,0,1,2.9.3,12.13,12.13,0,0,0,3.5-5.9A12.5,12.5,0,0,0,700.7,33a10.77,10.77,0,0,0-3.4-.5" transform="translate(-0.3 -3.28)"/><path class="cls-12" d="M693.7,33.1a11.76,11.76,0,0,0-6.8,4.9l-6.4,8.3,8.3-6.5a12.7,12.7,0,0,0,4.9-6.7" transform="translate(-0.3 -3.28)"/><path class="cls-17" d="M703,53.8a13,13,0,0,0-5.5,1.2l-9.7,3.9,10.4-1.5a12.81,12.81,0,0,0,7.7-3.3,14.28,14.28,0,0,0-2.9-.3" transform="translate(-0.3 -3.28)"/><path class="cls-17" d="M611.4,84.3a12.5,12.5,0,0,0,8.8,15.3,11.85,11.85,0,0,0,3.2.5,10.88,10.88,0,0,0,3.6-.6,13.5,13.5,0,0,1,4.9-6.8l8.3-6.5L649.8,74l2.7-3.4-4.3.7L633,73.6l-9.8,3.9a11.63,11.63,0,0,1-5.5,1.2,14.28,14.28,0,0,1-2.9-.3,15.21,15.21,0,0,0-3.4,5.9" transform="translate(-0.3 -3.28)"/><path class="cls-12" d="M640.3,86.3L632,92.8a11.64,11.64,0,0,0-4.9,6.8,12.56,12.56,0,0,0,6.8-4.9Z" transform="translate(-0.3 -3.28)"/><path class="cls-17" d="M633,73.6l-10.5,1.5a12.81,12.81,0,0,0-7.7,3.3,14.28,14.28,0,0,0,2.9.3,13,13,0,0,0,5.5-1.2Z" transform="translate(-0.3 -3.28)"/><path class="cls-13" d="M665.3,66.4a5,5,0,0,1-5,5,5,5,0,0,1,0-10,4.83,4.83,0,0,1,5,5" transform="translate(-0.3 -3.28)"/><g class="cls-18"><path class="cls-15" d="M614.9,54.1a12.33,12.33,0,0,0-6,3.3,12.49,12.49,0,0,0,0,17.7,11.58,11.58,0,0,0,6,3.3,12.81,12.81,0,0,1,7.7-3.3L633,73.6l14.4-5.7,4-1.5-4-1.6L632.9,59l-10.4-1.5a11.87,11.87,0,0,1-7.6-3.4" transform="translate(-0.3 -3.28)"/></g><path class="cls-12" d="M794,28.8a77,77,0,0,1,58.7,27.1l12.1-12.1a94.32,94.32,0,0,0-141.6,0l12.1,12.1A76.83,76.83,0,0,1,794,28.8" transform="translate(-0.3 -3.28)"/><path class="cls-11" d="M794,28.8a77,77,0,0,0-58.7,27.1l12.2,12.2c1-1.2,2.1-2.4,3.3-3.7,0.7-.8,1.5-1.5,2.3-2.3l2.4-2.1c0.8-.7,1.7-1.4,2.5-2a59.81,59.81,0,0,1,70.5-1c0.4,0.3.9,0.6,1.3,0.9a24.33,24.33,0,0,1,2.5,2c1.2,1,2.4,2.1,3.7,3.3,0.8,0.8,1.5,1.5,2.2,2.3l2.1,2.4,12.2-12.2A76.75,76.75,0,0,0,794,28.8" transform="translate(-0.3 -3.28)"/><path class="cls-14" d="M836.1,63.1a41,41,0,0,0-3.7-3.3c-0.8-.7-1.7-1.4-2.5-2-0.4-.3-0.9-0.6-1.3-0.9a59.81,59.81,0,0,0-70.5,1,24.33,24.33,0,0,0-2.5,2L753.2,62c-0.8.7-1.5,1.5-2.3,2.3-1.1,1.2-2.2,2.4-3.3,3.7l12.2,12.2a42.8,42.8,0,0,1,68.6,0L840.6,68l-2.1-2.4c-0.9-.9-1.6-1.7-2.4-2.5" transform="translate(-0.3 -3.28)"/><path class="cls-15" d="M794,63a42.76,42.76,0,0,0-34.3,17.2L772,92.5a25.72,25.72,0,0,1,44,0l12.3-12.3A42.76,42.76,0,0,0,794,63" transform="translate(-0.3 -3.28)"/><path class="cls-17" d="M794,80.1a25.67,25.67,0,0,0-22,12.4l13.3,13.3h0a8.6,8.6,0,1,1,17.2,0h0L816,92.5a25.92,25.92,0,0,0-22-12.4" transform="translate(-0.3 -3.28)"/><path class="cls-13" d="M802.8,105.6a8.7,8.7,0,1,1-8.7-8.7,8.84,8.84,0,0,1,8.7,8.7" transform="translate(-0.3 -3.28)"/><path class="cls-13" d="M964.3,109.1a60.6,60.6,0,0,0-85.7-85.7Z" transform="translate(-0.3 -3.28)"/><path class="cls-17" d="M950.2,36.3A41.47,41.47,0,0,0,891.6,95Z" transform="translate(-0.3 -3.28)"/><path class="cls-14" d="M891.5,94.9a41.51,41.51,0,1,0,58.7-58.7Z" transform="translate(-0.3 -3.28)"/><path class="cls-19" d="M900.3,45.2a29.84,29.84,0,0,0,42.2,42.2Z" transform="translate(-0.3 -3.28)"/><path class="cls-12" d="M942.6,87.4a29.84,29.84,0,0,0-42.2-42.2Z" transform="translate(-0.3 -3.28)"/><polygon class="cls-15" points="921 103.82 910.2 122.42 931.8 122.42 921 103.82"/></svg>